<?xml version="1.0" encoding="UTF-8" standalone="no"?>
<svg
   xmlns:dc="http://purl.org/dc/elements/1.1/"
   xmlns:cc="http://creativecommons.org/ns#"
   xmlns:rdf="http://www.w3.org/1999/02/22-rdf-syntax-ns#"
   xmlns:svg="http://www.w3.org/2000/svg"
   xmlns="http://www.w3.org/2000/svg"
   xmlns:sodipodi="http://sodipodi.sourceforge.net/DTD/sodipodi-0.dtd"
   xmlns:inkscape="http://www.inkscape.org/namespaces/inkscape"
   width="50.273045pt"
   height="56.880337pt"
   viewBox="0 0 17.735212 20.066119"
   version="1.1"
   id="svg8"
   inkscape:version="1.0 (9f2f71dc58, 2020-08-02)"
   sodipodi:docname="penguin.svg"
   shape-rendering="crispEdges">
  <defs
     id="defs2" />
  <sodipodi:namedview
     id="base"
     pagecolor="#a7a7a7"
     bordercolor="#666666"
     borderopacity="1.0"
     inkscape:pageopacity="0"
     inkscape:pageshadow="2"
     inkscape:zoom="17.163027"
     inkscape:cx="35.020695"
     inkscape:cy="23.104788"
     inkscape:document-units="mm"
     inkscape:current-layer="layer1"
     inkscape:document-rotation="0"
     showgrid="false"
     units="pt"
     inkscape:window-width="1294"
     inkscape:window-height="704"
     inkscape:window-x="72"
     inkscape:window-y="27"
     inkscape:window-maximized="1"
     inkscape:showpageshadow="false"
     inkscape:pagecheckerboard="true"
     inkscape:snap-global="false"
     fit-margin-top="0"
     fit-margin-left="0"
     fit-margin-right="0"
     fit-margin-bottom="0" />
  <metadata
     id="metadata5">
    <rdf:RDF>
      <cc:Work
         rdf:about="">
        <dc:format>image/svg+xml</dc:format>
        <dc:type
           rdf:resource="http://purl.org/dc/dcmitype/StillImage" />
        <dc:title></dc:title>
      </cc:Work>
    </rdf:RDF>
  </metadata>
  <g
     inkscape:label="Layer 1"
     inkscape:groupmode="layer"
     id="layer1"
     transform="translate(-170.96228,-139.43358)">
    <path
       id="path949"
       style="fill:#00000055;stroke-width:0.0221778;fill-opacity:0.14468336"
       d="m 179.4632,158.24454 c -2.1081,-0.0942 -4.34382,-0.78034 -5.74295,-2.44296 -0.9125,-1.09453 -0.98886,-2.77648 -0.15909,-3.9392 1.39456,-2.79532 9.09242,-3.67061 12.16955,-0.415 0.99992,1.02508 1.25095,2.72012 0.4582,3.93903 -1.03377,1.58223 -2.89467,2.39359 -4.69822,2.72692 -0.6683,0.11745 -1.34973,0.16292 -2.02749,0.13123 z m 0.27181,-7.67567 c 0.19389,-0.0214 0.18773,0.0263 0,0 z m -1.75427,-3.40961 c 0.0199,-0.16322 0.059,0.12099 0,0 z m 3.73362,-0.22249 c 0.0447,-0.27257 0.0151,0.27222 0,0 z"
       sodipodi:nodetypes="cccccccccccccc" />
    <path
       style="fill:#ffecdf;stroke:none;stroke-width:0.264583px;stroke-linecap:butt;stroke-linejoin:miter;stroke-opacity:1;fill-opacity:1"
       d="m 178.76655,142.08323 2.50146,-0.003 3.23513,8.56641 -0.25503,1.06228 c -3.22845,3.25692 -5.87553,3.21821 -8.81098,-0.37533 z"
       id="path960"
       sodipodi:nodetypes="cccccc" />
    <path
       style="fill:#7e7e7d;stroke-width:0.0221778"
       d="m 175.71463,151.92353 c -0.0798,-0.22607 -0.0634,-0.53561 0.0314,-0.59421 0.0111,-0.007 0.0673,0.0796 0.12498,0.19223 0.57469,1.12272 1.62827,1.89566 2.93821,2.15556 2.13798,0.42419 4.07016,-0.39245 5.138,-2.17159 l 0.1514,-0.25224 0.0178,0.12591 c 0.0801,0.56573 -0.21311,1.10838 -0.91896,1.7006 -2.08009,1.60756 -6.15935,2.17582 -7.48283,-1.15626 z m 8.79402,0.25831 c -0.0131,-0.0244 -0.0188,-0.0444 -0.0127,-0.0444 0.006,0 0.0218,0.02 0.0348,0.0444 0.013,0.0244 0.0188,0.0444 0.0127,0.0444 -0.006,0 -0.0218,-0.02 -0.0348,-0.0444 z m -9.30215,-0.073 c 0.008,-0.0219 0.0207,-0.0342 0.0275,-0.0274 0.007,0.007 2e-5,0.0247 -0.0151,0.0398 -0.0219,0.0217 -0.0244,0.0192 -0.0124,-0.0124 z m 10.41103,-1.47895 c 0.0131,-0.0244 0.0287,-0.0444 0.0348,-0.0444 0.006,0 4e-4,0.02 -0.0127,0.0444 -0.0131,0.0244 -0.0287,0.0444 -0.0348,0.0444 -0.006,0 -4.1e-4,-0.02 0.0127,-0.0444 z m -6.11551,-0.1008 c -0.77689,-0.2092 -1.2632,-1.23139 -1.46526,-3.07987 l -0.041,-0.37519 0.0801,-0.2275 0.08,-0.22751 0.0818,0.17351 c 0.33694,0.71445 1.22313,1.14371 1.99064,0.96424 0.69014,-0.16138 1.13513,-0.57527 1.34599,-1.25195 0.006,-0.0183 0.0429,0.0471 0.0828,0.14535 l 0.0724,0.17861 -0.0406,0.44052 c -0.22188,2.40565 -1.00784,3.57726 -2.1868,3.25979 z m 8.39128,-0.13206 c -0.0197,-0.0305 -0.052,-0.0829 -0.0717,-0.11644 l -0.0359,-0.061 0.0446,0.054 c 0.0527,0.0638 0.1226,0.17889 0.10861,0.17889 -0.005,0 -0.0259,-0.0249 -0.0456,-0.0554 z m -0.1467,-0.23287 c -0.0131,-0.0244 -0.0187,-0.0444 -0.0127,-0.0444 0.006,0 0.0218,0.02 0.0348,0.0444 0.0131,0.0244 0.0187,0.0444 0.0126,0.0444 -0.006,0 -0.0218,-0.02 -0.0348,-0.0444 z m -1.79465,-0.43432 c 10e-4,-0.0258 0.006,-0.0311 0.0134,-0.0134 0.006,0.016 0.006,0.0351 -0.002,0.0425 -0.007,0.007 -0.0126,-0.006 -0.0117,-0.0291 z m 0.0222,-0.0887 c 0.001,-0.0258 0.006,-0.0311 0.0134,-0.0134 0.006,0.016 0.006,0.0351 -0.002,0.0425 -0.007,0.007 -0.0126,-0.006 -0.0116,-0.0291 z m 0.0332,-0.14796 c 0.0758,-0.65783 0.0702,-1.06686 -0.0232,-1.67986 -0.0288,-0.1892 0.035,0.064 0.0774,0.30715 0.0744,0.42652 0.0527,1.09947 -0.0455,1.41163 -0.0173,0.0551 -0.0188,0.0485 -0.009,-0.0389 z m -0.0554,-1.80368 c 10e-4,-0.0258 0.006,-0.0311 0.0134,-0.0134 0.006,0.016 0.006,0.0351 -0.002,0.0425 -0.007,0.007 -0.0126,-0.006 -0.0117,-0.0291 z"
       id="path945"
       sodipodi:nodetypes="cccsccccccsscccccccsscccccccscccccccccsscccccscccccccccccccccccccccccc" />
    <path
       style="fill:#e48408;stroke-width:0.0221778"
       d="m 177.33414,156.24744 c -0.2478,-0.0303 -0.79567,-0.13951 -0.77973,-0.15544 0.004,-0.004 0.12647,0.0128 0.2717,0.0377 0.14524,0.0249 0.44797,0.0572 0.67274,0.0717 0.22835,0.0147 0.38492,0.033 0.35484,0.0414 -0.0561,0.0157 -0.404,0.0188 -0.51955,0.005 z m 4.26922,-0.0932 c -0.0463,-0.009 0.11929,-0.0216 0.41029,-0.0302 0.26835,-0.008 0.57604,-0.0258 0.68376,-0.0398 0.27059,-0.0351 0.26294,-0.0148 -0.0126,0.0336 -0.24013,0.0422 -0.93781,0.0656 -1.08142,0.0363 z m 1.34869,-0.10675 c 0.016,-0.006 0.0351,-0.006 0.0425,0.002 0.007,0.007 -0.006,0.0126 -0.0291,0.0116 -0.0258,-0.001 -0.0311,-0.006 -0.0134,-0.0134 z m -5.34069,-0.15273 c -1.718,-0.3 -2.60691,-0.68015 -2.97823,-1.27368 -0.18137,-0.2899 -0.0608,-1.28002 0.23271,-1.91186 0.10885,-0.23427 0.13371,-0.24526 0.0398,-0.0176 -0.0368,0.0892 -0.0643,0.1639 -0.0612,0.1659 0.003,0.002 0.0537,0.0214 0.11227,0.0431 0.27275,0.1011 0.57213,0.33806 0.78662,0.62262 0.66934,0.88798 1.64789,1.50016 2.68018,1.67675 0.27732,0.0474 0.43634,0.0997 0.42342,0.13906 -0.0264,0.0807 -0.31093,0.19539 -0.59585,0.24022 l -0.17404,0.0274 v 0.13744 c 0,0.23941 0.015,0.23456 -0.46573,0.15062 z m 4.00665,-0.068 c -0.008,-0.0472 -0.0143,-0.12203 -0.0144,-0.16639 -2.4e-4,-0.079 -0.002,-0.081 -0.10431,-0.0962 -0.25362,-0.038 -0.58344,-0.14555 -0.58344,-0.1902 0,-0.0101 0.0474,-0.0248 0.10534,-0.0327 1.01614,-0.13929 1.94043,-0.63101 2.75667,-1.46654 0.41175,-0.42148 0.50901,-0.54555 0.50901,-0.64936 0,-0.081 0.006,-0.0877 0.12217,-0.14472 0.0672,-0.0329 0.16955,-0.0972 0.22745,-0.143 0.19348,-0.15294 0.20697,-0.14797 0.31136,0.11471 0.35805,0.90095 0.25159,1.45572 -0.39679,2.06776 -0.45936,0.43362 -1.17595,0.71977 -1.80554,0.72099 -0.24003,4.6e-4 -0.4071,0.0105 -0.94478,0.0569 l -0.16856,0.0145 z m -2.23068,-1.08559 c 0.001,-0.0258 0.006,-0.0311 0.0134,-0.0134 0.006,0.016 0.006,0.0351 -0.002,0.0425 -0.007,0.007 -0.0126,-0.006 -0.0116,-0.0291 z m -4.3736,-2.82027 c -0.0276,-0.0352 -0.0268,-0.036 0.008,-0.008 0.037,0.029 0.0487,0.0472 0.0304,0.0472 -0.005,0 -0.0221,-0.0175 -0.0388,-0.0388 z m 9.55036,-0.006 c 0.0221,-0.0244 0.0451,-0.0443 0.0512,-0.0443 0.006,0 -0.007,0.02 -0.029,0.0443 -0.0221,0.0244 -0.0451,0.0444 -0.0512,0.0444 -0.006,0 0.007,-0.02 0.0291,-0.0444 z m -9.71526,-0.13861 -0.0651,-0.0721 0.0721,0.0651 c 0.0396,0.0358 0.0721,0.0683 0.0721,0.0721 0,0.0171 -0.0183,0.002 -0.079,-0.0651 z m 9.83724,0.0438 c 0,-0.003 0.0773,-0.0807 0.17188,-0.17187 l 0.17188,-0.16578 -0.16578,0.17187 c -0.15397,0.15964 -0.17798,0.182 -0.17798,0.16578 z m -10.10337,-0.30993 -0.0651,-0.0721 0.0721,0.0651 c 0.0396,0.0358 0.0721,0.0683 0.0721,0.0721 0,0.0171 -0.0183,0.002 -0.079,-0.0651 z m -0.1116,-0.13307 -0.0422,-0.0499 0.0499,0.0422 c 0.0469,0.0397 0.06,0.0575 0.0422,0.0575 -0.004,0 -0.0267,-0.0224 -0.0499,-0.0499 z m 10.61417,0.0194 c 0,-0.005 0.0175,-0.0221 0.0388,-0.0388 0.0352,-0.0276 0.036,-0.0268 0.008,0.008 -0.029,0.0369 -0.0472,0.0487 -0.0472,0.0304 z m 0.0887,-0.11089 c 0,-0.005 0.0175,-0.0221 0.0388,-0.0388 0.0352,-0.0276 0.036,-0.0268 0.008,0.008 -0.029,0.0369 -0.0472,0.0487 -0.0472,0.0304 z m -9.31467,-0.11089 c 0,-0.005 0.0175,-0.0221 0.0388,-0.0388 0.0352,-0.0276 0.0359,-0.0268 0.008,0.008 -0.029,0.0369 -0.0472,0.0487 -0.0472,0.0304 z m 0.11089,-0.13306 c 0,-0.005 0.0175,-0.0221 0.0388,-0.0388 0.0352,-0.0276 0.036,-0.0268 0.008,0.008 -0.029,0.0369 -0.0472,0.0487 -0.0472,0.0304 z m 12.70962,-0.0711 c 0.001,-0.0258 0.006,-0.0311 0.0134,-0.0134 0.006,0.016 0.006,0.0351 -0.002,0.0425 -0.007,0.007 -0.0126,-0.006 -0.0116,-0.0291 z m 0,-0.15524 c 0.001,-0.0258 0.006,-0.0311 0.0134,-0.0134 0.006,0.016 0.006,0.0351 -0.002,0.0425 -0.007,0.007 -0.0126,-0.006 -0.0116,-0.0291 z m -5.19418,-0.84646 c -0.0276,-0.0352 -0.0268,-0.036 0.008,-0.008 0.0213,0.0167 0.0388,0.0342 0.0388,0.0388 0,0.0182 -0.0182,0.007 -0.0472,-0.0304 z m -0.14272,-0.16633 -0.0651,-0.0721 0.0721,0.0651 c 0.0672,0.0607 0.0823,0.079 0.0651,0.079 -0.004,0 -0.0363,-0.0324 -0.0721,-0.0721 z m -0.18711,-0.18297 c -0.0539,-0.0549 -0.093,-0.0998 -0.0869,-0.0998 0.006,0 0.0552,0.0449 0.10903,0.0998 0.0539,0.0549 0.093,0.0998 0.0869,0.0998 -0.006,0 -0.0552,-0.0449 -0.10903,-0.0998 z m -11.97426,-0.0684 c 10e-4,-0.0258 0.006,-0.0311 0.0134,-0.0134 0.006,0.016 0.006,0.0351 -0.002,0.0425 -0.007,0.007 -0.0126,-0.006 -0.0117,-0.0291 z m 0.0222,-0.11089 c 10e-4,-0.0258 0.006,-0.0311 0.0134,-0.0134 0.006,0.016 0.006,0.0351 -0.002,0.0425 -0.007,0.007 -0.0126,-0.006 -0.0117,-0.0291 z m 2.43956,-0.0222 c 10e-4,-0.0258 0.006,-0.0311 0.0134,-0.0134 0.006,0.016 0.006,0.0351 -0.002,0.0425 -0.007,0.007 -0.0126,-0.006 -0.0117,-0.0291 z m 13.62649,-0.0979 c -0.0189,-0.0366 -0.0294,-0.0665 -0.0233,-0.0665 0.006,0 0.0266,0.0299 0.0455,0.0665 0.0189,0.0366 0.0294,0.0665 0.0233,0.0665 -0.006,0 -0.0266,-0.0299 -0.0455,-0.0665 z m -13.64528,-0.15524 c 0,-0.0427 0.005,-0.0602 0.0102,-0.0388 0.006,0.0213 0.006,0.0563 0,0.0776 -0.006,0.0214 -0.0102,0.004 -0.0102,-0.0388 z m 14.70048,-0.23472 c 10e-4,-0.0258 0.006,-0.0311 0.0134,-0.0134 0.006,0.016 0.006,0.0351 -0.002,0.0425 -0.007,0.007 -0.0126,-0.006 -0.0117,-0.0291 z m -0.0222,-0.11089 c 0.001,-0.0258 0.006,-0.0311 0.0134,-0.0134 0.006,0.016 0.006,0.0351 -0.002,0.0425 -0.007,0.007 -0.0126,-0.006 -0.0117,-0.0291 z m -0.0222,-0.11088 c 0.001,-0.0258 0.006,-0.0311 0.0134,-0.0134 0.006,0.016 0.006,0.0351 -0.002,0.0425 -0.007,0.007 -0.0126,-0.006 -0.0116,-0.0291 z m -14.65612,-0.40845 c 0,-0.0427 0.005,-0.0602 0.0102,-0.0388 0.006,0.0214 0.006,0.0563 0,0.0776 -0.006,0.0213 -0.0102,0.004 -0.0102,-0.0388 z m -0.18256,-0.56281 c 0,-0.005 0.0175,-0.0221 0.0388,-0.0388 0.0352,-0.0276 0.036,-0.0268 0.008,0.008 -0.029,0.0369 -0.0472,0.0487 -0.0472,0.0304 z m 6.13215,-0.0666 c -0.90085,-0.14854 -1.42602,-0.74348 -1.59571,-1.80773 -0.0383,-0.24023 -0.063,-0.29353 -0.0469,-0.10108 l 0.0111,0.13193 -0.0341,-0.15525 c -0.11486,-0.52325 0.11366,-1.08046 0.59304,-1.44605 0.1039,-0.0792 0.10591,-0.0829 0.0686,-0.12678 -0.0211,-0.0248 0.019,0.006 0.0892,0.0692 0.25589,0.22936 0.54533,0.26471 0.97099,0.11861 l 0.21147,-0.0726 0.18773,0.0613 c 0.4027,0.13148 0.77439,0.0974 0.95852,-0.0879 l 0.0937,-0.0943 0.14948,0.10872 c 0.55966,0.40706 0.67843,0.98287 0.40381,1.95766 -0.30726,1.09061 -1.04979,1.61095 -2.06093,1.44422 z m -5.87711,-0.10246 c -0.008,-0.0122 -0.003,-0.0222 0.01,-0.0222 0.0129,0 0.0235,0.01 0.0235,0.0222 0,0.0122 -0.004,0.0222 -0.01,0.0222 -0.005,0 -0.016,-0.01 -0.0235,-0.0222 z m 13.53671,-1.52472 c -0.0276,-0.0352 -0.0268,-0.036 0.008,-0.008 0.0369,0.029 0.0487,0.0472 0.0304,0.0472 -0.005,0 -0.0221,-0.0175 -0.0388,-0.0388 z m -0.13192,-0.15525 -0.0538,-0.061 0.061,0.0538 c 0.0335,0.0296 0.061,0.057 0.061,0.061 0,0.0174 -0.018,0.003 -0.0682,-0.0538 z m -0.15524,-0.17742 -0.0538,-0.061 0.061,0.0538 c 0.057,0.0503 0.0712,0.0682 0.0538,0.0682 -0.004,0 -0.0314,-0.0274 -0.061,-0.061 z m -13.97033,-0.10263 c 0,-0.005 0.0175,-0.0221 0.0388,-0.0388 0.0352,-0.0276 0.036,-0.0268 0.008,0.008 -0.029,0.0369 -0.0472,0.0487 -0.0472,0.0304 z m 13.70587,-0.18014 c -0.0539,-0.0549 -0.093,-0.0998 -0.0868,-0.0998 0.006,0 0.0552,0.0449 0.10903,0.0998 0.0539,0.0549 0.093,0.0998 0.0869,0.0998 -0.006,0 -0.0552,-0.0449 -0.10904,-0.0998 z m -13.58389,0.0333 c 0.0221,-0.0244 0.0451,-0.0444 0.0512,-0.0444 0.006,0 -0.007,0.02 -0.0291,0.0444 -0.0221,0.0244 -0.0451,0.0443 -0.0512,0.0443 -0.006,0 0.007,-0.02 0.0291,-0.0443 z m 0.13307,-0.15525 c 0.0221,-0.0244 0.0451,-0.0444 0.0512,-0.0444 0.006,0 -0.007,0.02 -0.0291,0.0444 -0.0221,0.0244 -0.0451,0.0444 -0.0512,0.0444 -0.006,0 0.007,-0.02 0.0291,-0.0444 z m 0.12197,-0.14 c 0,-0.004 0.0324,-0.0362 0.0721,-0.0721 l 0.0721,-0.0651 -0.0651,0.0721 c -0.0607,0.0672 -0.079,0.0823 -0.079,0.0651 z m 12.79539,-0.27583 -0.0764,-0.0832 0.0832,0.0764 c 0.0774,0.0711 0.0934,0.0899 0.0764,0.0899 -0.004,0 -0.0411,-0.0374 -0.0832,-0.0832 z m -0.27813,-0.25504 -0.0422,-0.0499 0.0499,0.0422 c 0.0274,0.0232 0.0499,0.0457 0.0499,0.0499 0,0.0178 -0.0179,0.005 -0.0575,-0.0422 z m -0.16706,-0.14416 c -0.0276,-0.0352 -0.0268,-0.036 0.008,-0.008 0.0214,0.0167 0.0388,0.0342 0.0388,0.0388 0,0.0182 -0.0182,0.006 -0.0472,-0.0304 z m -11.66268,-0.0125 c 0,-0.004 0.0324,-0.0363 0.0721,-0.0721 l 0.0721,-0.0651 -0.0651,0.0721 c -0.0607,0.0672 -0.079,0.0823 -0.079,0.0651 z m 11.39655,-0.2093 c -0.0276,-0.0352 -0.0268,-0.036 0.008,-0.008 0.0214,0.0167 0.0388,0.0342 0.0388,0.0388 0,0.0182 -0.0182,0.007 -0.0472,-0.0304 z m -11.1526,-0.0139 c 0,-0.005 0.0175,-0.0221 0.0388,-0.0388 0.0352,-0.0276 0.036,-0.0268 0.008,0.008 -0.029,0.0369 -0.0472,0.0487 -0.0472,0.0304 z m 0.15525,-0.13306 c 0,-0.005 0.0175,-0.0221 0.0388,-0.0388 0.0352,-0.0276 0.036,-0.0268 0.008,0.008 -0.029,0.0369 -0.0472,0.0487 -0.0472,0.0304 z m 0.13306,-0.11089 c 0,-0.005 0.0175,-0.0221 0.0388,-0.0388 0.0352,-0.0276 0.036,-0.0268 0.008,0.008 -0.029,0.0369 -0.0472,0.0487 -0.0472,0.0304 z m 0.11089,-0.0887 c 0,-0.005 0.0175,-0.0221 0.0388,-0.0388 0.0352,-0.0276 0.036,-0.0268 0.008,0.008 -0.029,0.0369 -0.0472,0.0487 -0.0472,0.0304 z m 6.58855,-0.24852 c 0.001,-0.0258 0.006,-0.0311 0.0134,-0.0134 0.006,0.016 0.006,0.0351 -0.002,0.0425 -0.007,0.007 -0.0126,-0.006 -0.0116,-0.0291 z m -1.40449,-0.48966 c 0.0153,-0.006 0.0402,-0.006 0.0554,0 0.0153,0.006 0.003,0.0112 -0.0277,0.0112 -0.0305,0 -0.043,-0.005 -0.0277,-0.0112 z m 0.82196,-4.6e-4 c 0.016,-0.006 0.0351,-0.006 0.0425,0.002 0.007,0.007 -0.006,0.0126 -0.0291,0.0116 -0.0258,-10e-4 -0.0311,-0.006 -0.0134,-0.0134 z m -1.54274,-0.0454 c 0.0457,-0.005 0.12059,-0.005 0.16633,0 0.0457,0.005 0.008,0.009 -0.0832,0.009 -0.0915,0 -0.12891,-0.004 -0.0832,-0.009 z m -2.4451,-1.32288 c 0,-0.005 0.0175,-0.0221 0.0388,-0.0388 0.0352,-0.0276 0.036,-0.0268 0.008,0.008 -0.029,0.0369 -0.0472,0.0487 -0.0472,0.0304 z m 0.13307,-0.15525 c 0,-0.005 0.0175,-0.0221 0.0388,-0.0388 0.0352,-0.0276 0.036,-0.0268 0.008,0.008 -0.029,0.0369 -0.0472,0.0487 -0.0472,0.0304 z m 0.16633,-0.19122 c 0.0221,-0.0244 0.0451,-0.0444 0.0512,-0.0444 0.006,0 -0.007,0.02 -0.0291,0.0444 -0.0221,0.0244 -0.0451,0.0444 -0.0512,0.0444 -0.006,0 0.007,-0.02 0.0291,-0.0444 z m 5.68577,-0.0166 c -0.0276,-0.0352 -0.0268,-0.036 0.008,-0.008 0.0369,0.029 0.0487,0.0472 0.0304,0.0472 -0.005,0 -0.0221,-0.0175 -0.0388,-0.0388 z m -5.51944,-0.17187 c 0.0286,-0.0305 0.0571,-0.0555 0.0632,-0.0555 0.006,0 -0.0123,0.0249 -0.041,0.0555 -0.0286,0.0305 -0.0571,0.0554 -0.0632,0.0554 -0.006,0 0.0124,-0.0249 0.041,-0.0554 z m 5.3642,-0.006 c -0.0276,-0.0352 -0.0268,-0.036 0.008,-0.008 0.0214,0.0167 0.0388,0.0342 0.0388,0.0388 0,0.0182 -0.0182,0.006 -0.0472,-0.0304 z m -0.37463,-0.3992 -0.21025,-0.21623 0.21623,0.21025 c 0.11893,0.11564 0.21623,0.21294 0.21623,0.21623 0,0.0161 -0.0269,-0.009 -0.22221,-0.21025 z m -4.50166,-0.10534 c 0.15211,-0.15247 0.28155,-0.27723 0.28765,-0.27723 0.006,0 -0.11336,0.12476 -0.26547,0.27723 -0.1521,0.15247 -0.28154,0.27722 -0.28764,0.27722 -0.006,0 0.11336,-0.12475 0.26546,-0.27722 z m 4.14442,-0.22733 c -0.0276,-0.0352 -0.0268,-0.0359 0.008,-0.008 0.0214,0.0167 0.0388,0.0342 0.0388,0.0388 0,0.0183 -0.0182,0.007 -0.0472,-0.0304 z m -3.74522,-0.14698 c 0,-0.005 0.0175,-0.0221 0.0388,-0.0388 0.0352,-0.0276 0.036,-0.0268 0.008,0.008 -0.029,0.0369 -0.0472,0.0487 -0.0472,0.0304 z"
       id="path943" />
    <path
       style="fill:#fb6400;stroke-width:0.0221778"
       d="m 175.05682,151.93938 c -0.17546,-0.14193 -0.45035,-0.3935 -0.33722,-0.30862 0.0379,0.0285 0.13808,0.11163 0.22255,0.18481 0.0845,0.0732 0.18817,0.16005 0.23043,0.19302 0.0423,0.033 0.07,0.0604 0.0617,0.061 -0.008,5.7e-4 -0.0882,-0.058 -0.17742,-0.1302 z m 9.67985,-0.22021 c 0.40344,-0.42175 0.69589,-0.81678 0.92706,-1.25222 0.13168,-0.24805 0.14139,-0.23501 0.0192,0.0258 -0.22735,0.48515 -0.63168,1.00658 -1.07447,1.38567 -0.0915,0.0783 -0.0514,0.0285 0.12822,-0.15922 z m -9.04438,-0.61724 c -0.84752,-0.52231 -1.62811,-1.8042 -1.69974,-2.79134 -0.005,-0.0636 0.74941,-1.4181 0.97309,-1.7481 0.12851,-0.18957 0.0807,-0.17467 -0.26512,0.0827 -1.15484,0.8593 -1.89233,1.25518 -2.291,1.22979 -0.0787,-0.005 -0.14301,-0.006 -0.14301,-0.001 0,0.0793 0.22357,0.29965 0.36966,0.36427 0.0812,0.0359 0.098,0.0529 0.0885,0.0893 -0.006,0.0247 -0.001,0.0618 0.0116,0.0823 0.0566,0.0907 -0.90351,1.32408 -1.11644,1.43419 -0.17611,0.0911 -0.26299,-0.22911 -0.21905,-0.80722 0.041,-0.53934 0.10705,-0.78307 0.41584,-1.53439 0.57842,-1.40739 2.01604,-3.04619 3.60105,-4.10497 l 0.27908,-0.18643 0.19547,-0.28831 c 0.53808,-0.79361 1.15622,-1.53356 1.844,-2.20732 0.62324,-0.61055 1.16848,-0.96507 1.84207,-1.19772 l 0.20375,-0.0704 0.21617,0.072 c 1.35671,0.45199 2.58614,1.55285 3.81576,3.41672 0.17881,0.27104 0.19054,0.28349 0.38965,0.41343 1.42154,0.92772 3.02568,2.47569 3.44085,3.32036 0.18799,0.38247 0.64404,1.84376 0.63182,2.02449 -10e-4,0.0214 -0.0155,-0.0109 -0.0311,-0.0719 -0.0384,-0.1495 -0.0383,-0.11383 6.8e-4,0.19876 0.087,0.6976 0.004,1.11027 -0.20055,0.99998 -0.12746,-0.0687 -0.32803,-0.29888 -0.43314,-0.4972 -0.0576,-0.10862 -0.11762,-0.19291 -0.14483,-0.20329 -0.1437,-0.0548 -0.54148,-0.64382 -0.53553,-0.79301 0.003,-0.0822 0.01,-0.091 0.0843,-0.11329 0.11759,-0.0352 0.26803,-0.15909 0.329,-0.27087 0.0292,-0.0535 0.0397,-0.0848 0.0233,-0.0696 -0.0776,0.0722 -0.37099,-0.004 -0.57561,-0.14988 -0.0341,-0.0243 -0.0904,-0.0449 -0.12515,-0.0459 -0.0347,-9.3e-4 -0.0931,-0.0134 -0.12964,-0.0277 -0.0627,-0.0245 -1.23197,-0.80074 -1.6613,-1.10284 -0.10866,-0.0765 -0.1925,-0.12992 -0.18631,-0.11882 0.006,0.0111 0.24185,0.41441 0.52367,0.89622 l 0.5124,0.87602 -0.1003,0.3992 c -0.0971,0.38652 -0.10809,0.41449 -0.34557,0.88042 -0.33298,0.65329 -0.48595,0.84122 -1.02211,1.25569 -0.15665,0.1211 -0.21317,0.17736 -0.20326,0.20233 0.008,0.019 0.0182,0.0695 0.0237,0.11221 0.006,0.0435 -0.0187,-0.005 -0.0551,-0.11089 -0.16859,-0.48887 -0.3848,-0.83762 -0.76825,-1.23926 -0.48592,-0.50896 -0.77606,-1.0258 -1.27249,-2.26667 l -0.24474,-0.61174 0.0256,-0.78095 c 0.0399,-1.21726 -0.0225,-1.40299 -0.61601,-1.83377 l -0.0631,-0.0458 0.0924,-0.16832 c 0.10312,-0.18789 0.16095,-0.51677 0.10527,-0.59867 -0.11657,-0.17147 -0.26552,-0.20192 -1.00971,-0.20641 -0.35742,-0.002 -0.69158,-0.0154 -0.80725,-0.0321 -0.38976,-0.0561 -0.92718,0.0601 -1.04313,0.22569 -0.0955,0.13632 -0.001,0.62256 0.15401,0.79402 0.0288,0.0318 0.0207,0.0444 -0.0748,0.11723 -0.48945,0.37327 -0.6865,0.86144 -0.59477,1.47348 0.0197,0.13129 0.0463,0.47822 0.0591,0.77097 l 0.0234,0.53227 -0.15276,0.42138 c -0.56694,1.56382 -1.21638,2.80051 -1.8722,3.56507 -0.12957,0.15106 -0.10751,0.14734 -0.27202,0.046 z m 11.39169,-2.68344 c -0.0261,-0.045 -0.0325,-0.0306 -0.0111,0.0252 0.008,0.0198 0.0185,0.0314 0.0242,0.0257 0.006,-0.006 -1.9e-4,-0.0286 -0.0132,-0.0509 z m 1.39449,2.7289 c -0.0305,-0.0192 -0.0891,-0.08 -0.13022,-0.13513 l -0.0748,-0.10019 0.11062,0.0874 c 0.0608,0.0481 0.1419,0.1004 0.18013,0.11623 0.0382,0.0158 0.0695,0.0376 0.0695,0.0483 0,0.0314 -0.0951,0.0212 -0.15525,-0.0166 z m 0.20311,-0.25219 c 0,-0.0305 0.005,-0.043 0.0112,-0.0277 0.006,0.0153 0.006,0.0402 0,0.0555 -0.006,0.0153 -0.0112,0.003 -0.0112,-0.0277 z m -14.99219,-1.26414 c 0,-0.0305 0.005,-0.043 0.0112,-0.0277 0.006,0.0153 0.006,0.0402 0,0.0554 -0.006,0.0153 -0.0112,0.003 -0.0112,-0.0277 z m -0.0305,-0.1996 c -0.009,-0.0793 -0.0205,-0.24395 -0.0265,-0.36593 -0.0104,-0.21263 -0.01,-0.20942 0.0214,0.0776 0.0177,0.16467 0.0297,0.32934 0.0265,0.36593 -0.003,0.0368 -0.0128,0.002 -0.0214,-0.0776 z m 13.54349,-0.24543 c -0.008,-0.013 -0.01,-0.0284 -0.004,-0.0342 0.006,-0.006 0.0165,0.005 0.0237,0.0237 0.015,0.0391 0.002,0.046 -0.0196,0.0106 z m -0.17587,-0.35209 c -0.0427,-0.0847 -0.14274,-0.29676 -0.22243,-0.47128 -0.0797,-0.17452 -0.15456,-0.33441 -0.16637,-0.3553 -0.0166,-0.0293 -0.0141,-0.0352 0.0106,-0.0257 0.0177,0.007 0.0388,0.0339 0.047,0.0602 0.008,0.0263 0.1075,0.24995 0.22071,0.49696 0.20549,0.44835 0.25715,0.58633 0.1105,0.29513 z m -14.40759,-0.0398 c 0.0503,-0.10047 0.15475,-0.31504 0.23217,-0.47682 l 0.14077,-0.29414 0.2306,-0.15282 0.2306,-0.15281 -0.13518,0.14179 c -0.0744,0.078 -0.27757,0.35633 -0.45159,0.61855 -0.17402,0.26222 -0.32143,0.48175 -0.32758,0.48785 -0.006,0.006 0.03,-0.0711 0.0802,-0.1716 z m 15.66174,-0.0188 c 10e-4,-0.0258 0.006,-0.0311 0.0134,-0.0134 0.006,0.016 0.006,0.0351 -0.002,0.0425 -0.007,0.007 -0.0126,-0.006 -0.0116,-0.0291 z m -14.5708,-1.15325 c 0.001,-0.0258 0.006,-0.0311 0.0134,-0.0134 0.006,0.016 0.006,0.0351 -0.002,0.0425 -0.007,0.007 -0.0126,-0.006 -0.0117,-0.0291 z"
       id="path941" />
    <path
       style="fill:#724203;stroke-width:0.0221778"
       d="m 177.50495,156.20392 c -1.45336,-0.10139 -2.44042,-0.58992 -2.81056,-1.39105 -0.0994,-0.21523 -0.0915,-0.22842 0.0338,-0.0563 0.36447,0.5005 1.45602,0.91665 3.05649,1.16527 0.29562,0.0459 0.29157,0.0483 0.29208,-0.17033 l 3.4e-4,-0.1448 0.17404,-0.0274 c 0.28492,-0.0448 0.5694,-0.15952 0.59585,-0.24022 0.0129,-0.0394 -0.1461,-0.0916 -0.42342,-0.13906 -1.03229,-0.17659 -2.01084,-0.78877 -2.68018,-1.67675 -0.21449,-0.28456 -0.51387,-0.52152 -0.78662,-0.62262 -0.0586,-0.0217 -0.10895,-0.041 -0.1119,-0.0428 -0.0211,-0.0129 0.17673,-0.43386 0.27429,-0.58363 l 0.12018,-0.18449 0.11594,0.0834 c 0.0638,0.0459 0.15086,0.1102 0.19355,0.1429 0.0667,0.0511 0.53274,0.29764 0.53201,0.28146 -1.3e-4,-0.003 0.0964,0.0872 0.21464,0.20077 0.81124,0.77964 1.89898,1.32583 3.03234,1.52266 l 0.0864,0.015 -0.0129,0.24789 c -0.0396,0.7613 -0.31891,1.20732 -0.93339,1.49053 -0.32929,0.15177 -0.43684,0.16623 -0.96296,0.12953 z m 3.77021,-0.11786 c -0.65077,-0.18605 -0.92535,-0.60253 -0.99538,-1.50977 l -0.0129,-0.16675 0.37437,-0.0931 c 1.3385,-0.33281 2.29691,-0.87321 3.04903,-1.71918 0.0841,-0.0946 0.15796,-0.17178 0.16418,-0.17158 0.0554,0.002 0.41568,-0.23395 0.53172,-0.34784 0.0502,-0.0493 0.15975,0.11621 0.3571,0.53963 0.0932,0.2 0.0981,0.22935 0.0382,0.22935 -0.0166,0 -0.0797,0.0392 -0.14027,0.087 -0.0605,0.0478 -0.16502,0.11388 -0.23221,0.14676 -0.11644,0.057 -0.12217,0.0637 -0.12217,0.14472 0,0.10381 -0.0973,0.22788 -0.50901,0.64936 -0.81624,0.83553 -1.74053,1.32725 -2.75667,1.46654 -0.0579,0.008 -0.10534,0.0227 -0.10534,0.0327 0,0.0444 0.3296,0.15213 0.5804,0.18974 l 0.10102,0.0152 0.0131,0.15581 c 0.0165,0.19642 -0.0118,0.18302 0.31933,0.1516 0.15597,-0.0148 0.48817,-0.0351 0.73822,-0.0452 1.0914,-0.0438 1.92569,-0.51703 2.35951,-1.33829 0.0923,-0.1748 0.0982,-0.16703 0.0332,0.0439 -0.2358,0.76436 -0.99185,1.30946 -2.07108,1.49319 -0.5677,0.0967 -1.4543,0.12055 -1.71431,0.0462 z m 2.83779,-4.37029 c 0,-0.0305 0.005,-0.043 0.0112,-0.0277 0.006,0.0153 0.006,0.0402 0,0.0555 -0.006,0.0152 -0.0112,0.003 -0.0112,-0.0277 z m -8.46982,-0.0998 c 2.5e-4,-0.0488 0.005,-0.0661 0.0101,-0.0385 0.005,0.0276 0.005,0.0675 -4.5e-4,0.0887 -0.006,0.0212 -0.01,-0.001 -0.01,-0.0502 z m 8.47064,-0.24395 c 4.6e-4,-0.0366 0.005,-0.0489 0.011,-0.0273 0.006,0.0216 0.005,0.0515 -8.2e-4,0.0665 -0.006,0.015 -0.0107,-0.003 -0.0102,-0.0392 z m -12.87852,-0.23287 c 0.0221,-0.0244 0.0451,-0.0443 0.0512,-0.0443 0.006,0 -0.007,0.02 -0.0291,0.0443 -0.0221,0.0244 -0.0451,0.0444 -0.0512,0.0444 -0.006,0 0.007,-0.02 0.0291,-0.0444 z m -0.22855,-0.36593 c 4.5e-4,-0.0366 0.005,-0.0489 0.0111,-0.0273 0.006,0.0216 0.005,0.0515 -8.2e-4,0.0665 -0.006,0.015 -0.0107,-0.003 -0.0102,-0.0392 z m 3.01076,-0.10195 c -0.0255,-0.05 -0.0426,-0.0947 -0.0379,-0.0993 0.005,-0.005 0.0302,0.0362 0.0567,0.0909 0.0605,0.1244 0.0441,0.13175 -0.0188,0.008 z m -2.98858,-0.11983 c 4.5e-4,-0.0366 0.005,-0.0489 0.011,-0.0273 0.006,0.0216 0.005,0.0515 -8.3e-4,0.0665 -0.006,0.015 -0.0107,-0.003 -0.0102,-0.0392 z m 0.0214,-0.18851 c 0,-0.0305 0.005,-0.043 0.0112,-0.0277 0.006,0.0152 0.006,0.0402 0,0.0554 -0.006,0.0152 -0.0112,0.003 -0.0112,-0.0277 z m 0.0204,-0.16818 c 10e-4,-0.0258 0.006,-0.0311 0.0134,-0.0134 0.006,0.016 0.006,0.0351 -0.002,0.0425 -0.007,0.007 -0.0126,-0.006 -0.0117,-0.0291 z m 14.90347,-0.62098 c 0.001,-0.0258 0.006,-0.0311 0.0134,-0.0134 0.006,0.016 0.006,0.0351 -0.002,0.0425 -0.007,0.007 -0.0126,-0.006 -0.0116,-0.0291 z m 0.0222,-0.13307 c 0.001,-0.0258 0.006,-0.0311 0.0134,-0.0134 0.006,0.016 0.006,0.0351 -0.002,0.0425 -0.007,0.007 -0.0126,-0.006 -0.0117,-0.0291 z m 0.0248,-0.17557 c 4.6e-4,-0.0366 0.005,-0.0489 0.0111,-0.0273 0.006,0.0216 0.005,0.0515 -8.2e-4,0.0665 -0.006,0.015 -0.0107,-0.003 -0.0102,-0.0392 z m 0.025,-0.32158 c 0,-0.0793 0.004,-0.11172 0.009,-0.0721 0.005,0.0396 0.005,0.10452 0,0.14416 -0.005,0.0396 -0.009,0.007 -0.009,-0.0721 z m -2.3e-4,-0.45464 c 1.3e-4,-0.0732 0.004,-0.10046 0.009,-0.0606 0.005,0.0399 0.005,0.0998 -2.3e-4,0.13307 -0.005,0.0333 -0.009,7.1e-4 -0.009,-0.0725 z m -0.0256,-0.2994 c 0,-0.0305 0.005,-0.043 0.0112,-0.0277 0.006,0.0152 0.006,0.0402 0,0.0554 -0.006,0.0153 -0.0112,0.003 -0.0112,-0.0277 z m -0.0239,-0.19036 c 0.001,-0.0258 0.006,-0.0311 0.0134,-0.0134 0.006,0.016 0.006,0.0351 -0.002,0.0425 -0.007,0.007 -0.0126,-0.006 -0.0117,-0.0291 z m -6.57245,-0.25202 c -0.36859,-0.0994 -0.7484,-0.34085 -0.97199,-0.61792 -0.12799,-0.1586 -0.30826,-0.49431 -0.30823,-0.57399 10e-6,-0.0221 0.0304,0.024 0.0675,0.10244 0.23123,0.48879 0.61574,0.82597 1.08702,0.95323 1.0037,0.27102 1.84037,-0.10736 2.20454,-0.99702 0.0405,-0.099 0.0795,-0.1706 0.0866,-0.15912 0.007,0.0115 0.007,0.0267 -1.1e-4,0.0339 -0.007,0.007 -0.0357,0.0779 -0.0634,0.15723 -0.2867,0.8205 -1.25727,1.32902 -2.10188,1.10127 z m -1.45333,-1.75813 c -0.0281,-0.11136 -0.0557,-0.36434 -0.0377,-0.34638 0.0159,0.0159 0.0818,0.4212 0.0703,0.43264 -0.005,0.005 -0.0194,-0.0341 -0.0326,-0.0863 z m 1.1481,-1.77486 c -0.13917,-0.0702 -0.1613,-0.14318 -0.0848,-0.27963 l 0.0577,-0.10294 0.14145,6e-4 c 0.29618,0.001 0.36416,0.11792 0.18489,0.31732 -0.11701,0.13014 -0.15374,0.13807 -0.2993,0.0647 z m 1.23169,0.001 c -0.27864,-0.19849 -0.27871,-0.31014 -2.4e-4,-0.38267 0.16879,-0.044 0.18014,-0.0434 0.25894,0.0127 0.14072,0.1002 0.12649,0.21644 -0.0416,0.33975 -0.12453,0.0914 -0.13017,0.0921 -0.2171,0.0302 z"
       id="path939" />
    <path
       style="fill:#7e3200;stroke-width:0.0221778"
       d="m 175.84635,152.48417 c -0.21306,-0.10875 -0.60801,-0.37574 -0.60801,-0.41104 0,-0.009 -0.0817,-0.0808 -0.18154,-0.15928 -0.54386,-0.42731 -0.92205,-0.94072 -1.1732,-1.59266 -0.24497,-0.63589 -0.33089,-1.83787 -0.18372,-2.57015 0.0203,-0.10087 0.0314,-0.18888 0.0247,-0.19557 -0.007,-0.007 -0.17338,0.0952 -0.37042,0.22655 l -0.35826,0.23871 -0.27511,0.55567 c -0.17263,0.34867 -0.39244,0.74567 -0.59008,1.06575 -0.17323,0.28055 -0.42736,0.70937 -0.56472,0.95294 -0.29676,0.5262 -0.3458,0.59364 -0.42478,0.58416 -0.15942,-0.0192 -0.16699,-0.24714 -0.0374,-1.12681 0.059,-0.40023 0.37305,-1.73445 0.33154,-1.40829 -0.10307,0.80972 -0.0264,1.30847 0.18445,1.19945 0.21293,-0.11011 1.17307,-1.34352 1.11644,-1.43419 -0.0128,-0.0206 -0.018,-0.0576 -0.0116,-0.0823 0.01,-0.0364 -0.007,-0.0533 -0.0885,-0.0893 -0.14609,-0.0646 -0.36966,-0.28493 -0.36966,-0.36427 0,-0.004 0.0643,-0.004 0.14301,0.001 0.39867,0.0254 1.13616,-0.3705 2.291,-1.22979 0.34582,-0.25732 0.39363,-0.27222 0.26512,-0.0827 -0.22368,0.33 -0.9777,1.68455 -0.97309,1.7481 0.0722,0.99439 0.86669,2.29171 1.71401,2.79867 l 0.14665,0.0877 -0.062,0.062 c -0.23089,0.23089 -0.18012,0.61762 0.14604,1.11231 0.0788,0.11954 0.14092,0.21951 0.13803,0.22217 -0.003,0.003 -0.10591,-0.0465 -0.22892,-0.10932 z m 8.01914,-0.064 c 0,-0.004 0.0439,-0.0931 0.0975,-0.19732 0.17606,-0.34215 0.22129,-0.96987 0.0926,-1.28466 -0.0103,-0.0251 0.0451,-0.0804 0.20285,-0.20233 0.53616,-0.41447 0.68913,-0.6024 1.02211,-1.25569 0.23748,-0.46593 0.24846,-0.4939 0.34557,-0.88042 l 0.1003,-0.3992 -0.5124,-0.87602 c -0.28182,-0.48181 -0.51747,-0.88511 -0.52367,-0.89622 -0.006,-0.0111 0.0777,0.0424 0.18631,0.11882 0.42933,0.3021 1.59858,1.0783 1.6613,1.10284 0.0366,0.0143 0.0949,0.0268 0.12964,0.0277 0.0347,9.3e-4 0.091,0.0216 0.12515,0.0459 0.20462,0.14571 0.49801,0.2221 0.57561,0.14988 0.0164,-0.0152 0.006,0.0161 -0.0233,0.0696 -0.061,0.11178 -0.21141,0.23563 -0.329,0.27087 -0.0745,0.0223 -0.081,0.0311 -0.0843,0.11329 -0.006,0.14919 0.39183,0.73821 0.53553,0.79301 0.0272,0.0104 0.0873,0.0947 0.14483,0.20329 0.10511,0.19832 0.30568,0.42855 0.43314,0.4972 0.2048,0.11029 0.28757,-0.30238 0.20055,-0.99998 -0.0182,-0.14591 -0.0324,-0.27527 -0.0316,-0.28747 0.006,-0.0859 0.25119,1.0375 0.36994,1.69353 0.0805,0.44491 0.11065,0.85884 0.0657,0.90365 -0.0243,0.0242 -0.18829,-0.0612 -0.29488,-0.1536 -0.2968,-0.25723 -1.10381,-1.65781 -1.5741,-2.73189 -0.0587,-0.13418 -0.12248,-0.25614 -0.14162,-0.27102 -0.0832,-0.0647 -0.71503,-0.45336 -0.7234,-0.44498 -0.005,0.005 -2e-4,0.0409 0.0109,0.0795 0.17215,0.60027 0.15575,1.64765 -0.0364,2.32204 -0.1817,0.63781 -0.95818,1.71124 -1.62444,2.2457 -0.12258,0.0983 -0.40045,0.26767 -0.40045,0.24405 z m 3.20743,-3.97652 c -0.0214,-0.0558 -0.0151,-0.0702 0.0111,-0.0252 0.013,0.0223 0.0189,0.0451 0.0132,0.0509 -0.006,0.006 -0.0166,-0.006 -0.0242,-0.0257 z m -9.09158,-1.5543 c -0.008,-0.0839 -0.0195,-0.33217 -0.0264,-0.55173 l -0.0125,-0.3992 0.0559,0.14416 c 0.15858,0.40873 0.1663,0.49068 0.0711,0.75414 l -0.0742,0.20517 z m 3.67256,-0.27265 -0.0704,-0.17295 0.0639,-0.25657 c 0.0351,-0.14111 0.0757,-0.33759 0.0902,-0.43663 0.0145,-0.099 0.0307,-0.17569 0.036,-0.17036 0.0102,0.0102 -0.0321,1.1921 -0.0431,1.20308 -0.004,0.004 -0.038,-0.0714 -0.0767,-0.16657 z"
       id="path937" />
  </g>
</svg>
